<?xml version="1.0" encoding="UTF-8"?>
<svg xmlns="http://www.w3.org/2000/svg" width="1600" height="900" viewBox="0 0 1600 900">
  <defs>
    <linearGradient id="bg" x1="0" x2="1">
      <stop offset="0" stop-color="#041232"/>
      <stop offset="1" stop-color="#07183a"/>
    </linearGradient>
    <radialGradient id="halo" cx="50%" cy="30%">
      <stop offset="0" stop-color="#1fb6ff" stop-opacity="0.18"/>
      <stop offset="1" stop-color="#000814" stop-opacity="0"/>
    </radialGradient>
    <filter id="glow" x="-50%" y="-50%" width="200%" height="200%">
      <feGaussianBlur stdDeviation="18" result="b"/>
      <feMerge><feMergeNode in="b"/><feMergeNode in="SourceGraphic"/></feMerge>
    </filter>
  </defs>
  <rect width="100%" height="100%" fill="url(#bg)"/>
  <rect x="80" y="60" width="1440" height="780" rx="28" fill="url(#halo)"/>
  <g filter="url(#glow)">
    <rect x="140" y="140" width="420" height="260" rx="14" fill="#06244a" opacity="0.8"/>
    <rect x="580" y="120" width="900" height="400" rx="18" fill="#062a4e" opacity="0.75"/>
    <g transform="translate(170,170) scale(0.9)">
      <rect x="0" y="0" width="200" height="360" rx="12" fill="#021428" stroke="#0af" stroke-opacity="0.9" stroke-width="2"/>
      <rect x="28" y="36" width="144" height="240" rx="8" fill="#052843"/>
      <rect x="40" y="56" width="108" height="20" rx="4" fill="#06b6ff" opacity="0.9"/>
      <circle cx="100" cy="300" r="32" fill="#09a1ff" opacity="0.9"/>
    </g>
    <g transform="translate(740,160)">
      <g>
        <rect x="0" y="0" width="680" height="320" rx="14" fill="rgba(255,255,255,0.02)" stroke="#1fb6ff" stroke-opacity="0.16"/>
        <rect x="36" y="32" width="260" height="40" rx="8" fill="#03223e" stroke="#06b6ff" stroke-opacity="0.12"/>
        <rect x="36" y="90" width="580" height="160" rx="10" fill="#042845"/>
        <g fill="#7ef" opacity="0.95">
          <rect x="56" y="106" width="160" height="28" rx="6"/>
          <rect x="56" y="148" width="360" height="18" rx="4"/>
          <rect x="56" y="178" width="220" height="10" rx="4"/>
        </g>
      </g>
    </g>
  </g>
  <text x="120" y="820" fill="#7ef" font-family="Inter, Arial" font-size="28">Mobile App Development</text>
</svg>
