<?xml version="1.0" encoding="UTF-8"?>
<svg xmlns="http://www.w3.org/2000/svg" width="1600" height="900" viewBox="0 0 1600 900">
  <defs>
    <linearGradient id="bg" x1="0" x2="1"><stop offset="0" stop-color="#02112a"/><stop offset="1" stop-color="#06163a"/></linearGradient>
    <radialGradient id="g" cx="50%" cy="35%"><stop offset="0" stop-color="#34d399" stop-opacity="0.12"/><stop offset="1" stop-color="#000814" stop-opacity="0"/></radialGradient>
    <filter id="blur"><feGaussianBlur stdDeviation="14"/></filter>
  </defs>
  <rect width="100%" height="100%" fill="url(#bg)"/>
  <rect x="92" y="72" width="1416" height="756" rx="26" fill="url(#g)"/>
  <g filter="url(#blur)">
    <g transform="translate(160,160)">
      <rect x="0" y="0" width="420" height="320" rx="12" fill="#032a40"/>
      <g transform="translate(36,36)" fill="#34d399">
        <circle cx="72" cy="72" r="52"/>
        <rect x="160" y="24" width="180" height="20" rx="6"/>
        <rect x="160" y="64" width="120" height="12" rx="6"/>
      </g>
    </g>
    <g transform="translate(640,160)">
      <rect x="0" y="0" width="760" height="420" rx="18" fill="#052a45"/>
      <g transform="translate(60,40)" fill="#6ff">
        <rect x="0" y="0" width="640" height="28" rx="8"/>
        <rect x="0" y="56" width="520" height="200" rx="12"/>
        <g transform="translate(24,82)">
          <rect x="0" y="0" width="120" height="20" rx="6"/>
          <rect x="140" y="0" width="100" height="20" rx="6"/>
          <rect x="260" y="0" width="200" height="20" rx="6"/>
        </g>
      </g>
    </g>
  </g>
  <text x="120" y="820" fill="#7ef" font-family="Inter, Arial" font-size="28">SEO Optimization</text>
</svg>
